<?xml version="1.0" encoding="UTF-8"?>
<svg version="1.1" xmlns="http://www.w3.org/2000/svg" width="2688" height="1099" viewBox="0 0 2688 1099">

<path d="M0 0 C2.20707291 -0.00202636 4.41414517 -0.00494245 6.62121582 -0.00869751 C11.22361694 -0.01309441 15.82584216 -0.00677527 20.42822266 0.00732422 C26.28818012 0.02441428 32.14772516 0.01455888 38.00766754 -0.00339317 C42.55823804 -0.01430256 47.10871291 -0.01075205 51.6592865 -0.0030098 C53.8183548 -0.00102751 55.97743217 -0.0033966 58.13648987 -0.01044846 C85.2537235 -0.07960984 105.94607783 5.13895615 126.21875 24.1484375 C134.42235386 32.65490314 140.26361108 43.20446654 143.96875 54.3984375 C144.21590759 55.0907547 144.46306519 55.7830719 144.7177124 56.49636841 C148.11545104 67.6102138 147.42182954 79.16409043 147.40234375 90.66796875 C147.4069128 93.03627165 147.41222051 95.40457323 147.41822815 97.77287292 C147.42713204 102.72274175 147.42476772 107.67244901 147.41479492 112.62231445 C147.40331826 118.92970734 147.42351148 125.23653926 147.45271206 131.54385853 C147.47116092 136.43156918 147.47076417 141.31914761 147.46507454 146.20688438 C147.46492234 148.53063429 147.47088197 150.85439375 147.48336601 153.17811012 C147.55696901 169.12392778 146.81722501 183.4069466 139.15625 197.7734375 C138.63695923 198.77419312 138.63695923 198.77419312 138.10717773 199.79516602 C135.26054968 205.14032018 132.04895302 209.90671186 127.96875 214.3984375 C127.32679688 215.13191406 126.68484375 215.86539063 126.0234375 216.62109375 C112.28015772 231.40399433 92.92047246 239.8533446 72.83398438 240.67889404 C66.86868258 240.82997624 60.90425343 240.81636345 54.9375 240.796875 C52.73042709 240.79890136 50.52335483 240.80181745 48.31628418 240.80557251 C43.71388306 240.80996941 39.11165784 240.80365027 34.50927734 240.78955078 C28.64931988 240.77246072 22.78977484 240.78231612 16.92983246 240.80026817 C12.37926196 240.81117756 7.82878709 240.80762705 3.2782135 240.7998848 C1.1191452 240.79790251 -1.03993217 240.8002716 -3.19898987 240.80732346 C-30.3162235 240.87648484 -51.00857783 235.65791885 -71.28125 216.6484375 C-79.48485386 208.14197186 -85.32611108 197.59240846 -89.03125 186.3984375 C-89.27840759 185.7061203 -89.52556519 185.0138031 -89.7802124 184.30050659 C-93.17795104 173.1866612 -92.48432954 161.63278457 -92.46484375 150.12890625 C-92.4694128 147.76060335 -92.47472051 145.39230177 -92.48072815 143.02400208 C-92.48963204 138.07413325 -92.48726772 133.12442599 -92.47729492 128.17456055 C-92.46581826 121.86716766 -92.48601148 115.56033574 -92.51521206 109.25301647 C-92.53366092 104.36530582 -92.53326417 99.47772739 -92.52757454 94.58999062 C-92.52742234 92.26624071 -92.53338197 89.94248125 -92.54586601 87.61876488 C-92.61946901 71.67294722 -91.87972501 57.3899284 -84.21875 43.0234375 C-83.87255615 42.35626709 -83.5263623 41.68909668 -83.16967773 41.00170898 C-80.32304968 35.65655482 -77.11145302 30.89016314 -73.03125 26.3984375 C-72.38929688 25.66496094 -71.74734375 24.93148438 -71.0859375 24.17578125 C-51.8435423 3.4777805 -26.86961751 -0.08776083 0 0 Z " fill="#FD6035" transform="translate(2175.03125,428.6015625)"/>
<path d="M0 0 C0.84310921 -0.00085442 1.68621842 -0.00170885 2.55487639 -0.00258917 C5.36616045 -0.00422986 8.1773842 0.00125423 10.98866272 0.00672913 C13.00937397 0.00701133 15.03008532 0.00685262 17.05079651 0.00628662 C22.52748906 0.00599994 28.00415967 0.01187589 33.48084712 0.01886058 C39.20769944 0.02511552 44.93455227 0.02569961 50.66140747 0.02688599 C61.50200679 0.02999298 72.34259601 0.03819787 83.18319088 0.04823548 C95.52652693 0.05941621 107.86986346 0.06491201 120.21320331 0.06993091 C145.6006843 0.080381 170.98815144 0.09871865 196.37562561 0.12025452 C196.37562561 15.63025452 196.37562561 31.14025452 196.37562561 47.12025452 C187.35843201 47.1421283 187.35843201 47.1421283 178.15907288 47.16444397 C158.30987972 47.21475316 138.46076486 47.28119147 118.61164951 47.35596943 C106.5757084 47.40091804 94.53979681 47.44033494 82.50379944 47.46669006 C72.01214809 47.48967763 61.52059026 47.52308428 51.0290131 47.56895608 C45.47478822 47.59287791 39.9206559 47.61161356 34.36638069 47.61786842 C29.1354401 47.62392389 23.90473631 47.64394077 18.67388344 47.67453003 C16.75712479 47.68330279 14.84033519 47.68703442 12.92355728 47.68526268 C10.29899655 47.68360311 7.67515189 47.70036706 5.0506897 47.7215271 C4.29871561 47.71667952 3.54674152 47.71183195 2.77198035 47.70683748 C-5.84694447 47.82089482 -12.72926542 50.34940976 -18.96421814 56.31166077 C-23.94478596 61.73754994 -24.78348488 67.96028233 -24.62437439 75.12025452 C-23.59932556 80.97767638 -21.26706075 86.25095207 -16.62437439 90.12025452 C-8.59771943 95.68894915 -0.59823993 95.82867849 8.80848694 95.74794006 C10.34550847 95.75312759 11.88252385 95.76053433 13.41952515 95.76997375 C16.71202718 95.78546538 20.00401968 95.78541846 23.29653358 95.7729702 C28.51402768 95.75331609 33.73107495 95.76869573 38.94854736 95.78842163 C47.20948829 95.81551506 55.47024529 95.81907412 63.73122185 95.81264859 C78.50484272 95.80170274 93.27840706 95.82649901 108.05197161 95.86639625 C113.22671726 95.87938652 118.40129401 95.88077429 123.57604754 95.87226331 C126.80962468 95.86860974 130.04315961 95.87297151 133.27673149 95.87910461 C134.76289658 95.88017981 136.24906903 95.87788843 137.73522186 95.87175941 C159.50756065 95.78636479 179.5294537 99.74566308 195.73500061 115.23353577 C209.50687075 130.28887901 214.36506413 148.60585869 213.54603577 168.76283264 C212.42804149 184.22895409 205.44452601 198.61762635 195.68339539 210.43959045 C195.12241516 211.12325558 194.56143493 211.8069207 193.9834553 212.51130295 C186.64617015 221.33999944 178.76701369 229.66749066 170.8888092 238.01087952 C169.1631016 239.84571937 167.43740406 241.68056869 165.7117157 243.51542664 C149.96985477 260.22068095 134.02732203 276.73282461 118.02516747 293.18852234 C115.88535819 295.39011277 113.74618812 297.59232216 111.6075592 299.7950592 C111.07623118 300.34226553 110.54490315 300.88947185 109.99747427 301.45326018 C101.96846992 309.7290098 94.05017701 318.10122321 86.18373108 326.53138733 C74.03115362 339.54323419 61.72807553 352.39430175 49.14906311 364.99525452 C48.39494402 365.75165411 48.39494402 365.75165411 47.62559021 366.5233345 C3.12509364 411.0784836 3.12509364 411.0784836 -28.16743469 411.38246155 C-40.62163154 411.11411149 -52.78334003 408.98849315 -64.62437439 405.12025452 C-59.94341085 399.49333735 -54.94139931 394.3081458 -49.74975586 389.15229797 C-48.86752096 388.27203091 -47.98528606 387.39176385 -47.07631677 386.48482203 C-45.14876879 384.56230925 -43.22032483 382.64074918 -41.29026031 380.72076797 C-38.14884622 377.59575963 -35.01095184 374.46723173 -31.8734436 371.33830261 C-27.31754767 366.79550143 -22.76003607 362.25432653 -18.20163155 357.71404266 C-10.99094805 350.53163352 -3.78609226 343.34339377 3.41775513 336.15412903 C5.88572109 333.69128688 8.35371214 331.2284699 10.821702 328.7656517 C11.43839712 328.15024262 12.05509224 327.53483353 12.69047509 326.90077569 C19.70248989 319.90347935 26.71538652 312.90706723 33.72889709 305.91127014 C34.3696407 305.27214128 35.01038431 304.63301241 35.67054439 303.974516 C46.05286857 293.61872454 56.44079092 283.26856367 66.83033722 272.92001858 C77.51088509 262.28126066 88.18372315 251.63481002 98.84990984 240.98165393 C105.42147071 234.41867064 111.99915707 227.86195167 118.58494652 221.31324598 C123.10040251 216.82213745 127.60846405 212.32369331 132.11087006 207.81950238 C134.70514169 205.22465522 137.30250791 202.63312594 139.90884781 200.05039597 C142.74156934 197.24317583 145.55834739 194.42046225 148.37402344 191.59614563 C149.18998566 190.79251689 150.00594788 189.98888815 150.84663624 189.16090703 C158.14564804 181.7915754 164.80373264 173.98297021 165.68812561 163.37025452 C165.66478477 159.21558556 164.29328894 156.34479268 162.25062561 152.78431702 C161.37562561 151.12025452 161.37562561 151.12025452 161.37562561 149.12025452 C156.06798096 146.36814248 151.96453838 144.87089114 145.90823364 144.85523987 C144.60057037 144.84696671 143.2929071 144.83869354 141.94561768 144.83016968 C140.50309743 144.83099424 139.06057727 144.83199187 137.61805725 144.83314514 C136.09325292 144.82711814 134.56845192 144.82019318 133.0436554 144.81243896 C129.76213673 144.79756062 126.48067879 144.7888032 123.1991291 144.784729 C117.99865815 144.77800006 112.79831621 144.75622366 107.59790039 144.73219299 C96.54467246 144.68323741 85.49141699 144.65096043 74.43812561 144.62025452 C62.53460347 144.58711878 50.63113186 144.55095038 38.72768682 144.49612379 C33.57082399 144.47293109 28.41405002 144.45907296 23.25714028 144.45262909 C20.02895535 144.44663644 16.80084111 144.43249308 13.57269287 144.41628456 C12.09018828 144.41047127 10.60766618 144.40792307 9.12515068 144.40912437 C-14.81509805 144.42297689 -34.62010406 139.68849935 -52.37437439 122.93275452 C-66.40351971 108.27694709 -73.06921114 89.89341566 -72.99082947 69.80531311 C-72.42684449 49.56872959 -63.84048782 32.01545428 -49.39390564 17.94837952 C-35.60808337 6.03299544 -18.06299993 -0.06769296 0 0 Z " fill="#FD6036" transform="translate(881.6243743896484,428.87974548339844)"/>
<path d="M0 0 C0.96364471 -0.0049649 1.92728943 -0.00992981 2.9201355 -0.01504517 C6.09381844 -0.02959415 9.26745135 -0.03645775 12.44116211 -0.04199219 C13.53155729 -0.04481956 14.62195248 -0.04764694 15.74538994 -0.05056 C21.51922725 -0.06552573 27.29303975 -0.07477086 33.06689453 -0.07910156 C38.99888326 -0.08457276 44.9306409 -0.1085799 50.86255741 -0.13707352 C55.45168191 -0.15580205 60.04075196 -0.16091098 64.62991142 -0.16243744 C66.81493832 -0.16544302 68.99996474 -0.17339974 71.18495369 -0.18662262 C97.29118196 -0.33329469 118.20103131 4.56790651 137.78100586 22.80175781 C143.82704176 28.80801716 148.45379031 35.19925801 152.40600586 42.72363281 C152.72327637 43.30508057 153.04054688 43.88652832 153.36743164 44.4855957 C160.7855574 59.39006434 160.75634403 75.73556636 160.68725586 91.97363281 C160.68995877 94.24031744 160.69384778 96.50700093 160.69885254 98.77368164 C160.70470999 103.49702116 160.69630662 108.22005566 160.67749023 112.94335938 C160.65470344 118.95113924 160.6678468 124.95820391 160.69178009 130.96595764 C160.70634013 135.63844034 160.70158562 140.31075775 160.69126892 144.98324585 C160.68862974 147.19648324 160.69177054 149.40973639 160.70118713 151.62295532 C160.75378893 167.45450704 160.17526012 183.35335468 152.40600586 197.59863281 C152.06384033 198.25275146 151.7216748 198.90687012 151.36914062 199.58081055 C148.27165987 205.31649286 144.56183821 210.35314538 140.15600586 215.16113281 C139.59268555 215.79277344 139.02936523 216.42441406 138.44897461 217.07519531 C125.62243664 230.71277901 106.15719296 239.67628486 87.43533325 240.28138733 C86.0311901 240.28425556 84.62702882 240.28169763 83.22290039 240.2746582 C82.45149216 240.27480423 81.68008392 240.27495026 80.88529968 240.27510071 C78.35310995 240.27440789 75.82099514 240.26664522 73.28881836 240.25878906 C71.52619466 240.25692264 69.76357045 240.25549979 68.00094604 240.25450134 C63.37482252 240.25069384 58.74873068 240.24087871 54.12261963 240.22979736 C48.56502945 240.21774082 43.00742864 240.21317259 37.4498291 240.20734406 C29.01853269 240.19766595 20.58730572 240.17849705 12.15600586 240.16113281 C12.15600586 224.65113281 12.15600586 209.14113281 12.15600586 193.16113281 C19.88651367 193.10505859 19.88651367 193.10505859 27.77319336 193.04785156 C31.05447565 193.01754566 34.33570541 192.98638074 37.61694336 192.95214844 C42.81548286 192.89799439 48.01391847 192.84687841 53.21264648 192.81469727 C57.40793739 192.78852747 61.60287579 192.74803046 65.79794693 192.69794655 C67.3917207 192.6813697 68.98555532 192.66979863 70.57940292 192.66351891 C82.57782904 192.61149978 93.92133503 192.30225186 102.96850586 183.37207031 C110.73696023 174.9886133 112.30770075 166.71527014 112.30126953 155.54467773 C112.30462814 154.699944 112.30798676 153.85521027 112.31144714 152.98487854 C112.32091367 150.20377108 112.32289813 147.42272411 112.32397461 144.64160156 C112.32719031 142.69875565 112.33055462 140.75590998 112.33406067 138.81306458 C112.34004129 134.74377888 112.34190168 130.67451439 112.34130859 126.60522461 C112.34120706 121.40701596 112.35485462 116.20894418 112.3720808 111.01076794 C112.38323399 106.99831017 112.38522678 102.98588514 112.38469887 98.97341347 C112.38587416 97.0577885 112.39027046 95.14216257 112.39803123 93.22655296 C112.40789773 90.53953006 112.40492692 87.85279973 112.39892578 85.16577148 C112.40454529 84.38469025 112.41016479 83.60360901 112.41595459 82.79885864 C112.35977813 72.83256067 110.28811389 64.54122085 103.29663086 57.21191406 C95.25026717 49.77370577 87.43084201 48.02073447 76.62475586 47.98413086 C75.77683975 47.97755966 74.92892365 47.97098846 74.05531311 47.96421814 C71.25554299 47.94454788 68.45582649 47.93283353 65.65600586 47.92285156 C64.69491913 47.91877604 63.7338324 47.91470051 62.74362183 47.91050148 C57.65175596 47.88966261 52.55991682 47.87535417 47.46801758 47.8659668 C42.23752828 47.85493607 37.00746833 47.82056843 31.77713013 47.7807951 C27.73105134 47.7545033 23.68507268 47.74626363 19.63891602 47.74268532 C17.71261715 47.73784798 15.78632189 47.72631663 13.86010742 47.70764732 C-6.21435367 47.42493731 -6.21435367 47.42493731 -23.19165039 57.16113281 C-27.87750855 62.8329044 -30.95461364 68.85646298 -30.98265934 76.27655411 C-30.98813378 77.09266608 -30.99360823 77.90877804 -30.99924856 78.74962068 C-31.00022667 79.64066931 -31.00120478 80.53171795 -31.00221252 81.44976807 C-31.0071505 82.40056991 -31.01208848 83.35137176 -31.01717609 84.33098578 C-31.03256391 87.52469187 -31.04091523 90.71837783 -31.04931641 93.91210938 C-31.05889392 96.19838641 -31.06890392 98.48466167 -31.07931519 100.77093506 C-31.10638406 106.98536469 -31.12738292 113.19980194 -31.14731717 119.414258 C-31.16916448 125.90588587 -31.19655931 132.39749022 -31.22337341 138.88909912 C-31.26763904 149.78738394 -31.30847143 160.6856767 -31.34667969 171.58398438 C-31.38604363 182.80925437 -31.42747201 194.03451362 -31.47167969 205.25976562 C-31.47440396 205.95169771 -31.47712823 206.64362979 -31.47993506 207.3565295 C-31.49361468 210.82775163 -31.50733493 214.2989736 -31.52107537 217.77019548 C-31.63501232 246.56715279 -31.74102 275.36413402 -31.84399414 304.16113281 C-47.68399414 304.16113281 -63.52399414 304.16113281 -79.84399414 304.16113281 C-79.88814634 275.09879744 -79.92505105 246.03648578 -79.9461248 216.97412526 C-79.94862599 213.53727485 -79.95121466 210.10042452 -79.95385742 206.66357422 C-79.95438204 205.97940517 -79.95490666 205.29523612 -79.95544718 204.59033467 C-79.96413223 193.5355547 -79.97989166 182.48079569 -79.99829973 171.42602812 C-80.0170518 160.06933622 -80.0279725 148.71265979 -80.03217113 137.35595143 C-80.03477256 130.98275202 -80.04086321 124.60960003 -80.05545425 118.23641586 C-80.06909355 112.22991714 -80.07320399 106.22348509 -80.0702095 100.21697235 C-80.07075683 98.02009595 -80.07469625 95.82321716 -80.08240509 93.62635422 C-80.17307512 66.43904147 -76.53977146 42.63872725 -56.84399414 22.16113281 C-40.72542266 7.56113469 -21.75630955 0.02710519 0 0 Z " fill="#FD6035" transform="translate(1474.843994140625,428.8388671875)"/>
<path d="M0 0 C1.0693277 -0.0049649 2.1386554 -0.00992981 3.24038696 -0.01504517 C6.76638442 -0.02960848 10.29233683 -0.03646035 13.81835938 -0.04199219 C15.6341172 -0.04623325 15.6341172 -0.04623325 17.48655701 -0.05056 C23.89696469 -0.06553201 30.30735 -0.07477303 36.71777344 -0.07910156 C43.30656129 -0.08457213 49.89514102 -0.10857619 56.48386383 -0.13707352 C61.57829362 -0.15579676 66.67267434 -0.16091071 71.76713562 -0.16243744 C74.19415927 -0.16544446 76.62118247 -0.17340616 79.048172 -0.18662262 C100.93155016 -0.29725116 122.0849451 0.62476531 139.16210938 16.16113281 C139.90976563 16.80566406 140.65742187 17.45019531 141.42773438 18.11425781 C154.06654876 29.72133225 159.48526257 44.87999223 161.03710938 61.72363281 C161.93688354 83.31821278 153.85589771 100.86468782 140.41625977 117.23535156 C138.79787388 119.33594037 137.36403921 121.35702796 135.95678711 123.58691406 C129.49302029 133.73887078 121.72612968 143.76469995 110.16210938 148.16113281 C88.95579216 152.57412547 65.57392272 149.90216449 44.16210938 148.16113281 C45.78055736 144.0649938 48.72691513 141.35647697 51.81762695 138.34204102 C52.39510178 137.77069931 52.9725766 137.1993576 53.56755066 136.61070251 C54.82039392 135.37214874 56.0754658 134.13584614 57.33249855 132.90154457 C59.3263877 130.9425122 61.31304132 128.976407 63.29777527 127.00810242 C68.94146724 121.41323436 74.59607459 115.82949969 80.26000977 110.25512695 C83.72684816 106.84211254 87.18367077 103.41920985 90.63467979 99.99019432 C91.94690513 98.69032152 93.26290517 97.39424713 94.58283424 96.10219765 C104.32132553 86.71955981 104.32132553 86.71955981 111.16210938 75.16113281 C111.49210937 74.50113281 111.82210938 73.84113281 112.16210938 73.16113281 C112.90178582 66.29270872 112.90672156 60.48612137 108.72070312 54.78222656 C104.43949705 50.32934305 99.270631 48.3477339 93.13982201 48.06928444 C90.60659963 48.02360275 88.07538504 48.01459974 85.54174805 48.01586914 C84.5785112 48.01251053 83.61527435 48.00915192 82.62284851 48.00569153 C79.44191189 47.99620111 76.26102802 47.99423932 73.08007812 47.99316406 C70.8643644 47.98994999 68.6486509 47.9865858 66.43293762 47.983078 C61.7885387 47.97709139 57.14415837 47.97523761 52.49975586 47.97583008 C46.55820204 47.97593163 40.6167679 47.96228398 34.67524242 47.94505787 C30.09836788 47.93392072 25.5215221 47.93191141 20.94463539 47.9324398 C18.754658 47.9312621 16.56467982 47.92685213 14.37471581 47.91910744 C11.3066109 47.90927374 8.23876365 47.91219909 5.1706543 47.91821289 C4.27219788 47.91259338 3.37374146 47.90697388 2.44805908 47.90118408 C-6.67013034 47.94643578 -15.72639353 49.6638482 -22.75585938 55.84863281 C-29.82698475 63.3268379 -32.45266355 71.79478908 -32.35546875 81.95019531 C-32.36247803 82.87193542 -32.3694873 83.79367554 -32.37670898 84.74334717 C-32.39416078 87.75792528 -32.38271194 90.77154694 -32.36914062 93.78613281 C-32.37183922 95.90022968 -32.37572469 98.01432533 -32.3807373 100.12841797 C-32.38661502 104.54634487 -32.37812507 108.96394697 -32.359375 113.38183594 C-32.33658678 119.02395487 -32.34971912 124.66531251 -32.37366486 130.30740356 C-32.3881695 134.66908427 -32.38349545 139.03058666 -32.37315369 143.39227295 C-32.37049929 145.47174166 -32.37371046 147.55122694 -32.3830719 149.63067627 C-32.39331459 152.54490596 -32.37762903 155.45792966 -32.35546875 158.37207031 C-32.36356567 159.218078 -32.3716626 160.06408569 -32.38000488 160.93572998 C-32.25248875 170.05973703 -29.01323059 177.85602914 -22.75585938 184.47363281 C-13.59415282 192.53444183 -1.89712361 192.46304923 9.65625 192.47998047 C11.11554513 192.48929094 12.57483498 192.49946126 14.03411865 192.51042175 C17.97565684 192.53760978 21.91715951 192.55283776 25.85876656 192.56584978 C29.98543473 192.58152957 34.1120309 192.60830423 38.23864746 192.63388062 C46.04403304 192.68058282 53.84943229 192.71736823 61.65488577 192.75055349 C70.54491048 192.7888355 79.43486272 192.83822966 88.32482624 192.88853765 C106.60387366 192.99173018 124.88295178 193.07956496 143.16210938 193.16113281 C143.16210938 208.67113281 143.16210938 224.18113281 143.16210938 240.16113281 C123.34206089 240.22902281 103.5221075 240.28421494 83.70197201 240.31656933 C74.49780533 240.33199564 65.29371638 240.35300353 56.08959961 240.38745117 C48.06123647 240.41748391 40.03292966 240.43673854 32.00451189 240.4433983 C27.75901437 240.44728721 23.51367791 240.45633683 19.26823235 240.47832298 C15.26027809 240.49890817 11.25254899 240.50492287 7.24454689 240.50045586 C5.7850204 240.50127133 4.32548521 240.50710441 2.86600494 240.51874924 C-20.09382212 240.69272653 -41.24681406 234.13775335 -58.16992188 218.02050781 C-73.73402901 201.33979563 -80.9689447 181.39809127 -80.99902344 158.69433594 C-81.00398834 157.78252563 -81.00895325 156.87071533 -81.0140686 155.93127441 C-81.02859023 152.93496932 -81.03547694 149.93871723 -81.04101562 146.94238281 C-81.043843 145.91056381 -81.04667038 144.87874481 -81.04958344 143.81565857 C-81.0645387 138.35073596 -81.07379018 132.88583947 -81.078125 127.42089844 C-81.08359145 121.81758328 -81.10759152 116.21451334 -81.13609695 110.61127472 C-81.15486163 106.26655412 -81.15993633 101.92189085 -81.16146088 97.57713318 C-81.16445891 95.51377529 -81.17238908 93.4504177 -81.18564606 91.38710022 C-81.34384284 64.86365449 -76.39411018 42.2171419 -57.83789062 22.16113281 C-41.81603474 6.66581679 -22.00504577 0.02463425 0 0 Z " fill="#FD6036" transform="translate(1206.837890625,428.8388671875)"/>
<path d="M0 0 C1.06118042 -0.0049649 2.12236084 -0.00992981 3.21569824 -0.01504517 C6.71403665 -0.02960624 10.21232967 -0.03645963 13.71069336 -0.04199219 C16.15579732 -0.04774976 18.60090129 -0.05350741 21.04600525 -0.05926514 C26.17113453 -0.06975872 31.29624821 -0.07561176 36.42138672 -0.07910156 C42.95870759 -0.08457484 49.495819 -0.10858513 56.03307438 -0.13707352 C61.08542972 -0.1557861 66.13773555 -0.16091013 71.1901226 -0.16243744 C73.59843525 -0.16544637 76.0067474 -0.1734147 78.41502571 -0.18662262 C99.21161999 -0.29251452 118.0625285 1.05268453 135.23803711 14.16113281 C135.97666992 14.7115625 136.71530273 15.26199219 137.47631836 15.82910156 C149.43181654 25.51326157 156.57021137 40.05711333 158.91772461 55.10253906 C161.22362611 77.12108629 155.66490252 96.75712439 141.73803711 114.09863281 C140.25288158 115.79921192 138.75359562 117.48759206 137.23803711 119.16113281 C136.61155273 119.89460937 135.98506836 120.62808594 135.33959961 121.38378906 C133.98753398 122.94160381 132.58961812 124.46046642 131.15527344 125.94287109 C128.81008339 128.42254778 126.82333735 131.06557082 124.80078125 133.81274414 C119.01864371 141.11943043 113.10918455 147.97455296 103.47472 149.48682213 C94.63467887 150.43124502 85.72979876 149.96039021 76.87475586 149.46575928 C72.96074827 149.26851714 69.04429174 149.18403031 65.12670898 149.08886719 C57.49062338 148.88732347 49.8663979 148.56486731 42.23803711 148.16113281 C47.26475998 142.0183283 52.83103276 136.47802331 58.47384453 130.91129112 C60.20589707 129.20152628 61.9337307 127.4875997 63.66041565 125.77241516 C68.56586729 120.90030208 73.47542706 116.03239159 78.39550781 111.17504883 C81.4175512 108.19094793 84.43198386 105.19933123 87.44188118 102.20298195 C88.58041229 101.07242783 89.72169733 99.94463923 90.86593437 98.81986046 C105.27761052 85.11579399 105.27761052 85.11579399 111.32788086 66.84472656 C110.98871813 61.70510676 109.76561868 57.03041744 106.23803711 53.16113281 C101.25586248 49.7953516 96.03406466 48.04547901 90.02792358 48.02069092 C89.19546112 48.01498077 88.36299866 48.00927063 87.50531006 48.00338745 C86.60032776 48.00226959 85.69534546 48.00115173 84.76293945 48 C83.3231221 47.99255264 83.3231221 47.99255264 81.85421753 47.98495483 C78.67746259 47.97034681 75.50075763 47.96353234 72.32397461 47.95800781 C70.11162312 47.95225387 67.89927164 47.94649616 65.68692017 47.94073486 C61.04493986 47.93022779 56.40297685 47.92438365 51.76098633 47.92089844 C45.82963828 47.91542391 39.89852096 47.89141676 33.9672451 47.86292648 C29.39457546 47.8442454 24.8219607 47.83909152 20.24925613 47.83756256 C18.06371427 47.83454627 15.87817314 47.82655255 13.69266891 47.81337738 C10.62477158 47.79620769 7.55742863 47.79822415 4.48950195 47.8046875 C3.59666504 47.79547272 2.70382812 47.78625793 1.78393555 47.77676392 C-8.20663918 47.84226928 -16.33972826 50.4120776 -23.76196289 57.16113281 C-30.33000472 63.91162025 -32.36374787 71.82700114 -32.3112793 80.98852539 C-32.32150116 81.92641403 -32.33172302 82.86430267 -32.34225464 83.83061218 C-32.36986837 86.90589513 -32.36814673 89.98027249 -32.36352539 93.05566406 C-32.37130983 95.21124092 -32.37998132 97.36681473 -32.38949585 99.52238464 C-32.40438243 104.03203287 -32.40386605 108.54136786 -32.39331055 113.05102539 C-32.38173333 118.80419334 -32.41556934 124.55607095 -32.46199989 130.30902576 C-32.49159728 134.75916424 -32.49320139 139.20899644 -32.48698044 143.65921593 C-32.48800097 145.77892293 -32.49836504 147.89864842 -32.51860428 150.01825905 C-32.70228241 168.10836585 -32.70228241 168.10836585 -23.72134399 183.39582825 C-16.44494698 190.40724908 -8.31228979 192.26075146 1.61618042 192.3193512 C2.87813736 192.32914001 4.1400943 192.33892883 5.44029236 192.34901428 C6.8258358 192.35491728 8.21137965 192.3607278 9.59692383 192.36645508 C11.06577322 192.37604222 12.53461989 192.38605278 14.00346375 192.39645386 C17.98023695 192.42341847 21.95702191 192.44447358 25.93383551 192.46445584 C30.09386161 192.48636766 34.25385179 192.51373087 38.41384888 192.54051208 C46.28659891 192.59036885 54.15936895 192.63533363 62.03215802 192.67853445 C70.99708379 192.72796689 79.96197351 192.7828627 88.92686439 192.83821404 C107.36388994 192.95192634 125.80094875 193.05806752 144.23803711 193.16113281 C144.23803711 208.67113281 144.23803711 224.18113281 144.23803711 240.16113281 C124.28760484 240.22902103 104.33726702 240.28421392 84.38674831 240.31656933 C75.12204776 240.33199608 65.85742441 240.35300483 56.59277344 240.38745117 C48.51167259 240.41748254 40.43062769 240.43673822 32.34947258 240.4433983 C28.07602986 240.44728743 23.80274712 240.45633856 19.529356 240.47832298 C15.49513731 240.49890598 11.46114229 240.5049233 7.42687607 240.50045586 C5.95767431 240.50127142 4.48846393 240.50710583 3.01930809 240.51874924 C-21.34047298 240.70209894 -41.994019 233.11271171 -59.76196289 216.16113281 C-74.79887278 199.30298229 -80.91970737 179.11129124 -80.90722656 156.91625977 C-80.91058517 156.04010513 -80.91394379 155.1639505 -80.91740417 154.26124573 C-80.92683234 151.39062038 -80.9288533 148.52005389 -80.92993164 145.64941406 C-80.93315032 143.63315305 -80.93651484 141.61689226 -80.9400177 139.60063171 C-80.94598899 135.38194234 -80.94785971 131.16327338 -80.94726562 126.94458008 C-80.94716422 121.57319666 -80.96080289 116.20194608 -80.97803783 110.83059406 C-80.98922859 106.6669608 -80.99118266 102.5033589 -80.9906559 98.33971214 C-80.9918259 96.36123383 -80.99619171 94.38275445 -81.00398827 92.40429115 C-81.09907385 65.77981167 -77.11218049 42.80525363 -58.18041992 22.58837891 C-42.50526208 6.81609444 -21.89940378 0.02470849 0 0 Z " fill="#FD6035" transform="translate(1893.761962890625,428.8388671875)"/>
<path d="M0 0 C0.85127472 -0.0049649 1.70254944 -0.00992981 2.57962036 -0.01504517 C5.38357364 -0.0295964 8.18747031 -0.03645762 10.99145508 -0.04199219 C12.43545402 -0.04623325 12.43545402 -0.04623325 13.90862465 -0.05056 C19.00467832 -0.0655256 24.10070388 -0.07477119 29.19677734 -0.07910156 C34.43744478 -0.08457707 39.67785122 -0.10859328 44.918437 -0.13707352 C48.96872181 -0.155782 53.01894483 -0.16090989 57.06926918 -0.16243744 C58.99999732 -0.16544682 60.93072482 -0.17341677 62.86141014 -0.18662262 C88.32577946 -0.34834399 88.32577946 -0.34834399 98.31567383 8.13769531 C106.27781802 16.16180171 108.62592889 24.41320343 108.61401367 35.41015625 C108.6207309 36.31034485 108.62744812 37.21053345 108.6343689 38.13800049 C108.65328673 41.09889323 108.65727013 44.05955848 108.65942383 47.02050781 C108.66585666 49.09165538 108.67258538 51.16280206 108.67959595 53.23394775 C108.69155362 57.57135117 108.69527838 61.90867503 108.6940918 66.24609375 C108.69388884 71.78165416 108.72117448 77.31669989 108.75563622 82.85213852 C108.77796518 87.12976384 108.78192748 91.40726654 108.78087234 95.68494415 C108.78321991 97.72452821 108.79199537 99.76411608 108.80753708 101.80364227 C108.98398384 127.35275079 108.98398384 127.35275079 99.30786133 137.44238281 C91.18802207 144.47531445 81.92008608 146.46377756 71.45166016 146.45166016 C70.60330597 146.45837738 69.75495178 146.4650946 68.88088989 146.47201538 C66.09737158 146.49089384 63.31409579 146.49491473 60.53051758 146.49707031 C58.5776917 146.50350638 56.62486676 146.51023533 54.67204285 146.51724243 C50.58439908 146.52919066 46.49683967 146.5329259 42.40917969 146.53173828 C37.20228522 146.53153549 31.99593896 146.55880778 26.78917408 146.5932827 C22.75595171 146.61565584 18.72285896 146.61957261 14.68958092 146.61851883 C12.77166548 146.62086029 10.85374566 146.62960055 8.93589211 146.64518356 C-4.96127159 146.74751263 -18.24193384 146.76866996 -28.80151367 136.38378906 C-33.60949785 130.68432449 -36.77713416 124.63270739 -36.82368469 117.10287476 C-36.83084 116.30406891 -36.8379953 115.50526306 -36.84536743 114.68225098 C-36.84805634 113.81467163 -36.85074524 112.94709229 -36.85351562 112.05322266 C-36.86008682 111.1323587 -36.86665802 110.21149475 -36.87342834 109.26272583 C-36.89313391 106.21583978 -36.90481926 103.16900302 -36.91479492 100.12207031 C-36.92090821 98.55760603 -36.92090821 98.55760603 -36.927145 96.96153641 C-36.94799629 91.4387151 -36.96230084 85.91591855 -36.97167969 80.39306641 C-36.98272862 74.70377886 -37.017114 69.01488408 -37.05685139 63.32573509 C-37.08306696 58.93835754 -37.09137603 54.55107278 -37.09496117 50.16362381 C-37.09981607 48.0673826 -37.11139859 45.97114523 -37.12999916 43.87498093 C-37.15449053 40.9314794 -37.15340702 37.98898353 -37.14648438 35.04541016 C-37.15929443 34.1899762 -37.17210449 33.33454224 -37.18530273 32.45318604 C-37.1034521 22.83778419 -33.53039355 15.06984015 -26.95776367 8.14160156 C-18.92792497 1.17049159 -10.23963421 0.01442779 0 0 Z " fill="#FEFEFE" transform="translate(2166.676513671875,475.8388671875)"/>
<path d="M0 0 C15.84 0 31.68 0 48 0 C48 20.79 48 41.58 48 63 C62.85 63 77.7 63 93 63 C93 78.51 93 94.02 93 110 C78.15 110 63.3 110 48 110 C48.04036155 125.60391415 48.09722546 141.20749102 48.18390274 156.8112011 C48.22362909 164.0570803 48.25605393 171.30285192 48.27099609 178.54882812 C48.28404602 184.86805162 48.31109515 191.18703772 48.35461307 197.50612748 C48.377154 200.84889319 48.39082633 204.19110986 48.39188385 207.53399277 C48.3942573 211.27546261 48.42137045 215.0160134 48.45410156 218.75732422 C48.4490712 219.85281082 48.44404083 220.94829742 48.43885803 222.07698059 C48.57265254 232.0000006 51.20613411 240.0407623 58.08203125 247.3125 C65.42270791 253.77109943 74.96862102 255.26357648 84.4375 255.4140625 C85.4574707 255.44052856 85.4574707 255.44052856 86.49804688 255.4675293 C88.99847307 255.5298165 91.49926765 255.57653798 94 255.625 C99.61 255.74875 105.22 255.8725 111 256 C111 271.51 111 287.02 111 303 C101.595 303.0928125 101.595 303.0928125 92 303.1875 C90.05738281 303.21481201 88.11476563 303.24212402 86.11328125 303.27026367 C61.06428134 303.47715196 40.86508858 297.31654967 22.375 279.875 C5.77881156 262.70979938 -0.1998919 241.59971304 -0.12025452 218.14169312 C-0.12110894 217.20209893 -0.12196337 216.26250474 -0.12284368 215.294438 C-0.12447887 212.1746249 -0.1190095 209.05486667 -0.11352539 205.93505859 C-0.11324307 203.68730673 -0.11340213 201.43955478 -0.1139679 199.19180298 C-0.11425411 193.10993636 -0.10838574 187.02808957 -0.10139394 180.94622755 C-0.09513119 174.58277456 -0.09455429 168.21932108 -0.09336853 161.85586548 C-0.09061629 151.18173846 -0.08437542 140.50761925 -0.07543945 129.83349609 C-0.06624846 118.84326209 -0.05917589 107.85303005 -0.05493164 96.86279297 C-0.05466892 96.18438521 -0.05440619 95.50597746 -0.05413551 94.80701189 C-0.05283039 91.40335 -0.0515667 87.99968809 -0.05032361 84.59602618 C-0.03997127 56.39734461 -0.02154392 28.19867537 0 0 Z " fill="#FD6136" transform="translate(1673,366)"/>
<path d="M0 0 C2.80064529 1.79870143 4.99178998 4.2493195 7.3125 6.625 C7.95767578 7.24246094 8.60285156 7.85992187 9.26757812 8.49609375 C9.87666016 9.10839844 10.48574219 9.72070312 11.11328125 10.3515625 C11.66798096 10.90666504 12.22268066 11.46176758 12.79418945 12.03369141 C14.51315486 14.83679879 14.30708762 16.75432115 14 20 C12.53574783 22.25201786 12.53574783 22.25201786 10.43327045 24.40836906 C9.2396003 25.65418544 9.2396003 25.65418544 8.0218156 26.92516983 C7.13268118 27.82206563 6.24354676 28.71896143 5.32746887 29.64303589 C4.38327253 30.61634296 3.44034883 31.59088597 2.49859351 32.56655514 C-0.09557127 35.24605021 -2.70854969 37.90649688 -5.32521784 40.56399632 C-7.5670548 42.84571911 -9.79760849 45.13831121 -12.02811076 47.43110733 C-19.38148452 54.98967161 -26.77051528 62.51284921 -34.16974565 70.02649707 C-36.09920574 71.98582753 -38.02814217 73.94567229 -39.95697999 75.90561533 C-51.95340741 88.09374517 -63.96341845 100.26839238 -76.00353527 112.41337395 C-78.79266572 115.22721886 -81.58162281 118.0412354 -84.37036133 120.85546875 C-85.06345031 121.55487021 -85.7565393 122.25427167 -86.47063098 122.97486712 C-97.66415601 134.27449499 -108.78153996 145.64606446 -119.86961742 157.04908393 C-131.27541547 168.77611809 -142.75115763 180.43106066 -154.29598123 192.02127755 C-160.76829809 198.52268002 -167.20671656 205.05108453 -173.56694603 211.6623497 C-178.99236679 217.30166035 -184.47861516 222.87203241 -190.05034997 228.36698012 C-192.88566683 231.16704627 -195.68439087 233.98661453 -198.40617561 236.89752769 C-208.77350152 247.9472738 -217.70823883 255.79861748 -233.40743444 256.41033909 C-241.64252775 256.52060725 -249.82299066 255.93285802 -258 255 C-257.05378263 253.88632765 -256.10616123 252.77384811 -255.15795898 251.66186523 C-254.63040512 251.04222397 -254.10285126 250.4225827 -253.55931091 249.78416443 C-250.76681155 246.58898508 -247.69786749 243.6813376 -244.66015625 240.72265625 C-242.65395535 238.66931994 -240.79074755 236.61325275 -238.92997932 234.43569183 C-234.64269844 229.52065991 -230.06920662 224.91794008 -225.46017456 220.30627441 C-224.508791 219.35086655 -223.55761561 218.39525136 -222.60662854 217.43944883 C-220.01196872 214.83292861 -217.41424761 212.2294789 -214.81594825 209.62658739 C-212.00713963 206.81178351 -209.20113807 203.99418338 -206.39468384 201.17703247 C-199.63205354 194.38998621 -192.86456825 187.60779141 -186.09618968 180.82647824 C-184.18448596 178.91105779 -182.27291041 176.99550951 -180.3613801 175.079916 C-168.48334658 163.17666553 -156.60372717 151.27500031 -144.71931267 139.37812042 C-141.97284908 136.62872738 -139.22640164 133.87931822 -136.47998047 131.12988281 C-135.45612347 130.10490673 -135.45612347 130.10490673 -134.41158248 129.05922407 C-123.32997638 117.96493688 -112.25870403 106.8603956 -101.19157158 95.75167209 C-89.82480517 84.34253901 -78.44868293 72.94280269 -67.06332982 61.55221701 C-60.6724695 55.15793905 -54.28586239 48.75953298 -47.90975571 42.35054016 C-42.48643476 36.89929157 -37.05477724 31.45653036 -31.61186253 26.02484244 C-28.8342237 23.25240673 -26.0608501 20.47602206 -23.29816437 17.68867874 C-20.77126261 15.13941154 -18.23319443 12.60185658 -15.68557753 10.07329577 C-14.32619192 8.71806688 -12.97918019 7.35046143 -11.63258827 5.98251963 C-10.82576893 5.18627223 -10.0189496 4.39002484 -9.1876812 3.56964874 C-8.14819275 2.5281255 -8.14819275 2.5281255 -7.08770454 1.46556139 C-4.51075864 -0.34344575 -3.08659691 -0.39004106 0 0 Z " fill="#2F3762" transform="translate(637,478)"/>
<path d="M0 0 C1.29545966 0.40070851 1.29545966 0.40070851 2.61709023 0.80951214 C-2.41628303 6.88304445 -7.87656696 12.45737427 -13.44786644 18.03509808 C-14.46850774 19.06047807 -15.48894196 20.08606423 -16.50918812 21.11183739 C-19.29991747 23.91638937 -22.09373343 26.7178483 -24.88812673 29.518749 C-27.2874534 31.92447281 -29.68494055 34.33202569 -32.08241362 36.73959655 C-39.97158782 44.66197817 -47.86656673 52.57856143 -55.76316229 60.49354506 C-57.81827735 62.55345937 -59.87330057 64.61346528 -61.92830348 66.67349148 C-74.69280808 79.46894557 -87.45944901 92.26226563 -100.23104 105.05064678 C-103.18428066 108.00783676 -106.13749443 110.96505358 -109.09067345 113.92230511 C-109.82465073 114.65729076 -110.55862802 115.3922764 -111.31484704 116.14953434 C-123.22886267 128.08059076 -135.13076914 140.02365318 -147.02789462 151.97154927 C-159.24255573 164.23790738 -171.4684458 176.49298329 -183.70534939 188.73715305 C-190.5759789 195.612452 -197.441444 202.49274572 -204.29425812 209.38580608 C-210.12383546 215.24958 -215.96336875 221.10319766 -221.8164205 226.94354433 C-224.80394947 229.92522417 -227.78631917 232.91163902 -230.75590515 235.91119862 C-233.47134221 238.65382099 -236.2001007 241.38239266 -238.94039237 244.10017538 C-239.93209766 245.08863478 -240.91869195 246.08225251 -241.89972479 247.08130503 C-243.22830521 248.43280817 -244.57710127 249.76435114 -245.92693996 251.09462261 C-246.6721163 251.8415352 -247.41729263 252.58844778 -248.18505007 253.35799408 C-250.38290977 254.80951214 -250.38290977 254.80951214 -253.04560894 254.62415123 C-257.1652744 253.18828962 -259.69006697 250.11747165 -262.69540977 247.05951214 C-263.34058556 246.43818401 -263.98576134 245.81685589 -264.6504879 245.17669964 C-265.25956993 244.56568401 -265.86865196 243.95466839 -266.49619102 243.32513714 C-267.05089073 242.77116253 -267.60559044 242.21718792 -268.17709923 241.6464262 C-269.80924083 239.16004567 -269.71230384 237.74950551 -269.38290977 234.80951214 C-267.9262203 232.68810481 -267.9262203 232.68810481 -265.83459091 230.53980827 C-264.6470709 229.30220356 -264.6470709 229.30220356 -263.43556058 228.03959674 C-262.55099923 227.14367904 -261.66643788 226.24776135 -260.75507164 225.32469463 C-259.81592799 224.35616669 -258.87783551 223.38661853 -257.94070876 222.41613895 C-255.35768523 219.74801029 -252.75883188 217.0957942 -250.15689397 214.44612443 C-247.92774005 212.17204473 -245.70794738 209.88893718 -243.48814242 207.6057364 C-235.53026697 199.42115419 -227.53499768 191.2735226 -219.53134727 183.13373089 C-218.89882359 182.49033466 -218.2662999 181.84693843 -217.61460882 181.18404534 C-205.03768928 168.39226301 -192.4446569 155.61641365 -179.8223381 142.86942101 C-177.04623797 140.06541741 -174.27036022 137.26119392 -171.49472618 134.45672894 C-170.80489012 133.75975259 -170.11505406 133.06277624 -169.40431388 132.34467939 C-158.26625128 121.08711484 -147.20472146 109.75733161 -136.17225055 98.39636912 C-124.82367654 86.71275056 -113.40312463 75.10332329 -101.91198409 63.55987197 C-95.46976623 57.08451567 -89.0632612 50.58090897 -82.73649788 43.99253178 C-32.31830698 -8.4445426 -32.31830698 -8.4445426 0 0 Z " fill="#2F3762" transform="translate(707.3829097747803,365.1904878616333)"/>
<path d="M0 0 C2.99266492 1.98082367 5.36990539 4.62763621 7.875 7.1875 C8.57625 7.86103516 9.2775 8.53457031 10 9.22851562 C10.65742187 9.88916016 11.31484375 10.54980469 11.9921875 11.23046875 C12.89493408 12.13381958 12.89493408 12.13381958 13.81591797 13.05541992 C15 15 15 15 14.76947713 17.38884276 C13.91224784 20.29777972 12.9678201 21.56121966 10.87244797 23.72309589 C9.8638946 24.77782234 9.8638946 24.77782234 8.83496642 25.85385638 C8.08881898 26.61359089 7.34267154 27.37332539 6.57391357 28.15608215 C5.78653816 28.9729812 4.99916276 29.78988024 4.18792748 30.6315338 C1.53714016 33.37580624 -1.12813567 36.10552857 -3.79394531 38.83520508 C-5.2116119 40.29567273 -6.62775045 41.75761004 -8.04372463 43.21971843 C-25.91704266 61.67314321 -43.9484412 79.97507128 -62.00421524 98.24979115 C-64.35804185 100.6326694 -66.71161779 103.0157949 -69.06494141 105.39916992 C-69.64980276 105.99147475 -70.23466411 106.58377959 -70.83724853 107.19403305 C-80.27591868 116.75689746 -89.64105222 126.38858833 -98.97875825 136.04995374 C-108.59004124 145.99153921 -118.27161121 155.86041767 -128.02183795 165.6657936 C-133.48566792 171.16429571 -138.91413324 176.689738 -144.26456451 182.29883766 C-181.64247803 221.42759265 -181.64247803 221.42759265 -201.42596054 221.92575359 C-208.45333621 221.75809944 -215.19544228 220.76738752 -222 219 C-221.04715206 217.88094224 -220.09324751 216.7627841 -219.13890076 215.64500427 C-218.60780921 215.02223319 -218.07671766 214.39946211 -217.52953243 213.75781918 C-215.67944339 211.63159948 -213.73246793 209.6355836 -211.72265625 207.66015625 C-210.96146484 206.90669922 -210.20027344 206.15324219 -209.41601562 205.37695312 C-207.85094387 203.83785767 -206.28583987 202.298795 -204.72070312 200.75976562 C-203.95822266 200.00501953 -203.19574219 199.25027344 -202.41015625 198.47265625 C-201.73090088 197.80500244 -201.05164551 197.13734863 -200.35180664 196.44946289 C-198.44098551 194.45929696 -196.6414073 192.43910907 -194.84485054 190.34836578 C-191.09903162 186.05764732 -187.15551658 182.00447883 -183.13058472 177.97668457 C-181.98759389 176.82712036 -181.98759389 176.82712036 -180.82151234 175.65433264 C-178.28684598 173.10639177 -175.74868415 170.56196366 -173.21044922 168.01757812 C-171.38486441 166.1840842 -169.55946014 164.35041049 -167.73422241 162.51657104 C-162.27674054 157.03470838 -156.81443479 151.55766528 -151.35122412 146.08151269 C-149.80775947 144.53432937 -148.26442198 142.98701934 -146.72112894 141.43966484 C-137.12673223 131.82005444 -127.53074867 122.20203007 -117.92997551 112.58878326 C-115.71290029 110.36877871 -113.49584129 108.14875796 -111.27880859 105.92871094 C-110.72782431 105.3769806 -110.17684002 104.82525027 -109.60915925 104.25680083 C-100.66150396 95.29646103 -91.72419375 86.32587471 -82.79100953 77.35111004 C-73.61195063 68.12967735 -64.42353394 58.91765309 -55.22587979 49.71476698 C-50.06462209 44.55009298 -44.90762556 39.38131275 -39.7611351 34.20191956 C-34.92809134 29.33802527 -30.08255624 24.48689735 -25.22815323 19.64432144 C-23.44559255 17.8619826 -21.66733447 16.07532905 -19.89364624 14.28416061 C-17.47891392 11.84692344 -15.04941689 9.42545002 -12.615448 7.00744629 C-11.91107066 6.28918686 -11.20669332 5.57092744 -10.48097122 4.83090258 C-9.82742129 4.18792459 -9.17387136 3.5449466 -8.50051689 2.88248444 C-7.94118615 2.32179717 -7.38185541 1.7611099 -6.80557525 1.1834321 C-4.40544055 -0.38969339 -2.81545679 -0.30600335 0 0 Z " fill="#2F3762" transform="translate(673,514)"/>
<path d="M0 0 C-4.64135787 5.56715206 -9.57841376 10.73149301 -14.69825745 15.85888672 C-15.56148571 16.72720281 -16.42471398 17.59551889 -17.31410068 18.49014759 C-19.69482641 20.88379866 -22.07773295 23.2752383 -24.46166933 25.66568923 C-26.509546 27.71997072 -28.55558676 29.77607595 -30.60161633 31.83219689 C-37.33266725 38.59642455 -44.06949646 45.35488129 -50.8079516 52.11173201 C-52.56178022 53.87036131 -54.31551778 55.62908137 -56.06923556 57.3878212 C-66.96530981 68.31484255 -77.86352146 79.23972922 -88.76667881 90.15968323 C-91.28678353 92.68373717 -93.80686131 95.20781802 -96.3269043 97.73193359 C-96.95321945 98.35925711 -97.57953461 98.98658063 -98.22482901 99.63291395 C-108.39288548 109.81801399 -118.54882288 120.01511232 -128.69999016 130.21704245 C-139.1247093 140.69346318 -149.56065722 151.15859278 -160.007626 161.6128273 C-165.87221803 167.48208776 -171.73163568 173.35632384 -177.57840157 179.24334717 C-182.55159167 184.25073995 -187.53472789 189.24795189 -192.53139824 194.23191971 C-195.08148277 196.7761568 -197.6263794 199.32508466 -200.15851021 201.88720131 C-202.89918188 204.66006404 -205.66256001 207.40953875 -208.4287262 210.15698242 C-209.23105936 210.97611052 -210.03339253 211.79523861 -210.86003882 212.63918877 C-211.60129033 213.36787729 -212.34254185 214.09656582 -213.10625553 214.84733582 C-214.05998085 215.80366551 -214.05998085 215.80366551 -215.03297335 216.77931499 C-217 218 -217 218 -219.62656826 217.77950001 C-223.80021209 216.40876103 -226.34098943 213.31503317 -229.375 210.25 C-230.02855469 209.62867188 -230.68210937 209.00734375 -231.35546875 208.3671875 C-231.96777344 207.75617188 -232.58007812 207.14515625 -233.2109375 206.515625 C-233.77087402 205.96165039 -234.33081055 205.40767578 -234.90771484 204.83691406 C-236 203 -236 203 -235.76276374 200.61691028 C-234.91429281 197.70595347 -233.98214477 196.45341145 -231.88806534 194.29252148 C-231.21917982 193.59285391 -230.55029431 192.89318634 -229.86113954 192.17231673 C-229.11888304 191.41647317 -228.37662655 190.66062962 -227.61187744 189.88188171 C-226.82858558 189.06906622 -226.04529373 188.25625073 -225.23826575 187.41880447 C-222.60129703 184.68835311 -219.94984201 181.97244995 -217.29785156 179.2565918 C-215.88752948 177.80346835 -214.47873539 176.34887557 -213.07010558 174.89411177 C-195.28923892 156.53313397 -177.35027188 138.32363941 -159.38693619 120.14136028 C-157.0451411 117.77051359 -154.70359672 115.39941965 -152.36230469 113.02807617 C-151.78043395 112.43876195 -151.19856321 111.84944774 -150.59906003 111.24227551 C-141.20888124 101.72790522 -131.89225136 92.14472067 -122.60304716 82.53185167 C-113.04149088 72.63998115 -103.40964298 62.82083472 -93.7091291 53.06517345 C-88.27323434 47.59460804 -82.87271934 42.09713095 -77.55023956 36.51596642 C-34.23759385 -8.83628205 -34.23759385 -8.83628205 0 0 Z " fill="#2F3762" transform="translate(638,366)"/>
<path d="M0 0 C2.80064529 1.79870143 4.99178998 4.2493195 7.3125 6.625 C7.95767578 7.24246094 8.60285156 7.85992188 9.26757812 8.49609375 C9.87666016 9.10839844 10.48574219 9.72070312 11.11328125 10.3515625 C11.66798096 10.90666504 12.22268066 11.46176758 12.79418945 12.03369141 C14.58046278 14.94655744 14.45751757 16.60983964 14 20 C12.34200106 22.60994924 10.22731593 24.71557796 8.06086731 26.90963745 C7.42135421 27.58038303 6.78184111 28.25112862 6.12294883 28.94219983 C3.97122683 31.19059988 1.79819846 33.41712404 -0.37573242 35.64404297 C-1.92263086 37.24981701 -3.4684631 38.85661873 -5.01330566 40.46437073 C-10.10292278 45.74760034 -15.2262328 50.99745013 -20.35546875 56.2421875 C-21.22970309 57.13685431 -22.10393742 58.03152112 -23.00466371 58.95329905 C-31.2647941 67.40393112 -39.53731114 75.84227123 -47.84063244 84.25047112 C-49.76349239 86.19804337 -51.68617741 88.14578805 -53.60864258 90.09375 C-54.0864073 90.5778272 -54.56417202 91.0619044 -55.05641446 91.5606506 C-62.7585783 99.36874342 -70.38366243 107.24779494 -77.97962805 115.15909456 C-85.80503502 123.30658467 -93.70223803 131.37929222 -101.666354 139.39165032 C-106.12652625 143.88266655 -110.55094331 148.39853385 -114.90105247 152.99645615 C-144.53262822 184.23861448 -144.53262822 184.23861448 -162.30440909 185.33823073 C-170.31552995 185.50400734 -178.15560074 184.59101175 -186 183 C-184.67546989 180.06835916 -183.238949 177.98707117 -180.97236156 175.71229935 C-180.34793515 175.08080734 -179.72350874 174.44931534 -179.08016032 173.79868722 C-178.39291686 173.11385884 -177.70567339 172.42903046 -176.99760437 171.72344971 C-175.90389903 170.62188935 -175.90389903 170.62188935 -174.78809863 169.49807525 C-172.33705833 167.03200086 -169.87888876 164.57315947 -167.4206543 162.11425781 C-165.66455231 160.35053684 -163.90885519 158.58641267 -162.15353394 156.82191467 C-157.37955509 152.02596276 -152.59900853 147.23662043 -147.81656241 142.44911671 C-144.83128784 139.46058511 -141.84764915 136.47042408 -138.8643589 133.4799118 C-130.60577236 125.20176397 -122.34561218 116.92519575 -114.07869244 108.6553688 C-113.28538089 107.86177591 -113.28538089 107.86177591 -112.47604286 107.05215083 C-111.40387651 105.97961823 -110.33170888 104.9070869 -109.25953998 103.83455685 C-108.7273122 103.30214625 -108.19508441 102.76973566 -107.64672852 102.22119141 C-107.11385103 101.68813337 -106.58097354 101.15507533 -106.03194825 100.60586402 C-97.38982649 91.96019749 -88.75951622 83.30284379 -80.13432493 74.64028993 C-71.28094421 65.74886515 -62.41827321 56.86679241 -53.54600078 47.99421763 C-48.56379244 43.011424 -43.58563541 38.02472753 -38.61758995 33.02780914 C-33.9480788 28.33128505 -29.26590249 23.64766968 -24.57481003 18.97268486 C-22.85192497 17.25162356 -21.13333485 15.52625082 -19.41930962 13.79636574 C-17.08532003 11.44209603 -14.73658129 9.10362515 -12.38334656 6.76861572 C-11.36251961 5.72798882 -11.36251961 5.72798882 -10.3210699 4.66633916 C-9.68882024 4.04527815 -9.05657059 3.42421713 -8.40516186 2.78433609 C-7.86438509 2.24274487 -7.32360833 1.70115365 -6.76644439 1.14315057 C-4.39421328 -0.39203353 -2.77183194 -0.28652044 0 0 Z " fill="#2F3762" transform="translate(709,550)"/>
<path d="M0 0 C-5.5307447 6.74012922 -11.68935275 12.81599257 -17.86108398 18.95874023 C-19.06264184 20.15837632 -20.2639703 21.3582422 -21.46508789 22.55831909 C-24.04179987 25.13188205 -26.62005431 27.70388594 -29.19952202 30.27468681 C-33.28349113 34.3450756 -37.36359163 38.41932757 -41.44313049 42.49415588 C-50.84047314 51.87948014 -60.24282463 61.25978124 -69.64523315 70.64002991 C-78.26367429 79.23825956 -86.88103846 87.83756133 -95.49434906 96.4409309 C-99.54448413 100.48610251 -103.59704049 104.52882747 -107.6515063 108.56965816 C-110.17946615 111.09012424 -112.70532155 113.61269134 -115.23062897 116.13581467 C-116.39590754 117.29923159 -117.56204499 118.46178905 -118.72913551 119.62338829 C-124.18145881 125.05087807 -129.56523594 130.48450133 -134.56823444 136.33651829 C-136.54170813 138.62937788 -138.6339427 140.79050381 -140.75439453 142.94726562 C-141.61864044 143.82757446 -142.48288635 144.7078833 -143.37332153 145.61486816 C-147.26191586 149.54840217 -151.15251394 153.47984948 -155.05224609 157.40234375 C-157.11139178 159.47492862 -159.16298058 161.55458818 -161.20849609 163.640625 C-163.69534587 166.17669718 -166.19416082 168.7003614 -168.70217514 171.21549988 C-170.11118089 172.63446548 -171.5079894 174.06550918 -172.90457153 175.4967041 C-173.76251312 176.35179565 -174.62045471 177.20688721 -175.50439453 178.08789062 C-176.25383331 178.84541626 -177.00327209 179.60294189 -177.77542114 180.38342285 C-180.44111305 182.32055203 -181.77418285 182.4485697 -185 182 C-187.99266492 180.01917633 -190.36990539 177.37236379 -192.875 174.8125 C-193.57625 174.13896484 -194.2775 173.46542969 -195 172.77148438 C-195.65742188 172.11083984 -196.31484375 171.45019531 -196.9921875 170.76953125 C-197.59401855 170.16729736 -198.19584961 169.56506348 -198.81591797 168.94458008 C-200 167 -200 167 -199.95034409 164.80042744 C-198.56467068 160.71719287 -195.9588032 158.29605044 -192.97857666 155.24858093 C-192.34229269 154.58277333 -191.70600872 153.91696572 -191.05044341 153.23098212 C-188.91093655 150.9981025 -186.75704127 148.77968673 -184.60253906 146.5612793 C-183.06578287 144.96508333 -181.52964465 143.36829221 -179.99407959 141.77095032 C-165.9186193 127.15859257 -151.70786762 112.67520695 -137.4683876 98.2228117 C-135.55972737 96.28510138 -133.65131908 94.34714338 -131.74316406 92.40893555 C-131.26895546 91.92728346 -130.79474685 91.44563138 -130.30616829 90.94938377 C-122.66161448 83.18075991 -115.09115655 75.34386613 -107.54804185 67.47684636 C-99.77688899 59.37486488 -91.93332244 51.34732671 -84.02394271 43.37998706 C-79.59446814 38.91398542 -75.20130722 34.42288935 -70.88318634 29.84891319 C-48.81145729 6.525801 -33.02044235 -6.65289599 0 0 Z " fill="#2F3762" transform="translate(566,366)"/>
</svg>
